<svg width="81" height="14" viewBox="0 0 81 14" fill="none" xmlns="http://www.w3.org/2000/svg">
<path d="M0.147705 13V1.36365H4.60225C5.44316 1.36365 6.14202 1.49622 6.69884 1.76137C7.25945 2.02274 7.67801 2.38069 7.95452 2.83524C8.23483 3.28978 8.37498 3.80494 8.37498 4.38069C8.37498 4.85418 8.28407 5.25948 8.10225 5.5966C7.92043 5.92994 7.67611 6.20077 7.3693 6.4091C7.06248 6.61744 6.71967 6.76706 6.34089 6.85797V6.9716C6.75377 6.99433 7.1496 7.12122 7.52839 7.35228C7.91096 7.57956 8.22346 7.90153 8.46589 8.31819C8.70831 8.73486 8.82952 9.23865 8.82952 9.82956C8.82952 10.4318 8.68369 10.9735 8.39202 11.4546C8.10036 11.9318 7.66096 12.3087 7.07384 12.5852C6.48672 12.8618 5.74808 13 4.85793 13H0.147705ZM2.25566 11.2386H4.52271C5.28786 11.2386 5.83899 11.0928 6.17611 10.8011C6.51702 10.5057 6.68748 10.1269 6.68748 9.66478C6.68748 9.32009 6.60225 9.00948 6.4318 8.73297C6.26134 8.45266 6.01892 8.23297 5.70452 8.07387C5.39013 7.911 5.01513 7.82956 4.57952 7.82956H2.25566V11.2386ZM2.25566 6.31251H4.34089C4.70452 6.31251 5.03218 6.24622 5.32384 6.11365C5.61551 5.97728 5.84468 5.786 6.01134 5.53978C6.1818 5.28978 6.26702 4.99433 6.26702 4.65342C6.26702 4.20266 6.10793 3.83145 5.78975 3.53978C5.47536 3.24812 5.00755 3.10228 4.38634 3.10228H2.25566V6.31251Z" fill="#272525"/>
<path d="M14.5961 13.1705C13.7211 13.1705 12.9654 12.9886 12.329 12.625C11.6964 12.2576 11.2097 11.7386 10.8688 11.0682C10.5279 10.394 10.3574 9.60039 10.3574 8.68751C10.3574 7.78978 10.5279 7.00191 10.8688 6.32387C11.2135 5.64206 11.6945 5.11175 12.312 4.73297C12.9294 4.35039 13.6548 4.1591 14.4881 4.1591C15.026 4.1591 15.5336 4.24622 16.0108 4.42047C16.4919 4.59092 16.9161 4.85607 17.2836 5.21592C17.6548 5.57577 17.9464 6.0341 18.1586 6.59092C18.3707 7.14395 18.4767 7.80304 18.4767 8.56819V9.19888H11.3233V7.81251H16.5051C16.5014 7.41857 16.4161 7.06819 16.2495 6.76137C16.0828 6.45077 15.8498 6.20645 15.5506 6.02842C15.2551 5.85039 14.9105 5.76137 14.5165 5.76137C14.0961 5.76137 13.7267 5.86365 13.4086 6.06819C13.0904 6.26895 12.8423 6.5341 12.6642 6.86365C12.49 7.18941 12.401 7.54736 12.3972 7.93751V9.14774C12.3972 9.65531 12.49 10.0909 12.6756 10.4546C12.8612 10.8144 13.1207 11.0909 13.454 11.2841C13.7873 11.4735 14.1775 11.5682 14.6245 11.5682C14.9237 11.5682 15.1945 11.5265 15.437 11.4432C15.6794 11.3561 15.8896 11.2292 16.0676 11.0625C16.2457 10.8958 16.3801 10.6894 16.4711 10.4432L18.3915 10.6591C18.2703 11.1667 18.0392 11.6099 17.6983 11.9886C17.3612 12.3636 16.9294 12.6553 16.4029 12.8636C15.8764 13.0682 15.2741 13.1705 14.5961 13.1705Z" fill="#272525"/>
<path d="M24.7348 4.27274V5.86365H19.7177V4.27274H24.7348ZM20.9563 2.18183H23.0132V10.375C23.0132 10.6515 23.0548 10.8636 23.1382 11.0114C23.2253 11.1553 23.3389 11.2538 23.4791 11.3068C23.6192 11.3599 23.7745 11.3864 23.945 11.3864C24.0738 11.3864 24.1912 11.3769 24.2973 11.358C24.4071 11.339 24.4904 11.322 24.5473 11.3068L24.8938 12.9148C24.784 12.9527 24.6268 12.9943 24.4223 13.0398C24.2215 13.0852 23.9753 13.1118 23.6836 13.1193C23.1685 13.1345 22.7044 13.0568 22.2916 12.8864C21.8787 12.7121 21.551 12.4432 21.3086 12.0796C21.07 11.7159 20.9526 11.2614 20.9563 10.7159V2.18183Z" fill="#272525"/>
<path d="M30.9729 4.27274V5.86365H25.9558V4.27274H30.9729ZM27.1945 2.18183H29.2513V10.375C29.2513 10.6515 29.293 10.8636 29.3763 11.0114C29.4634 11.1553 29.577 11.2538 29.7172 11.3068C29.8573 11.3599 30.0126 11.3864 30.1831 11.3864C30.3119 11.3864 30.4293 11.3769 30.5354 11.358C30.6452 11.339 30.7286 11.322 30.7854 11.3068L31.132 12.9148C31.0221 12.9527 30.8649 12.9943 30.6604 13.0398C30.4596 13.0852 30.2134 13.1118 29.9217 13.1193C29.4066 13.1345 28.9426 13.0568 28.5297 12.8864C28.1168 12.7121 27.7892 12.4432 27.5467 12.0796C27.3081 11.7159 27.1907 11.2614 27.1945 10.7159V2.18183Z" fill="#272525"/>
<path d="M36.6229 13.1705C35.7479 13.1705 34.9923 12.9886 34.3559 12.625C33.7233 12.2576 33.2366 11.7386 32.8957 11.0682C32.5548 10.394 32.3843 9.60039 32.3843 8.68751C32.3843 7.78978 32.5548 7.00191 32.8957 6.32387C33.2404 5.64206 33.7214 5.11175 34.3388 4.73297C34.9563 4.35039 35.6816 4.1591 36.515 4.1591C37.0529 4.1591 37.5604 4.24622 38.0377 4.42047C38.5188 4.59092 38.943 4.85607 39.3104 5.21592C39.6816 5.57577 39.9733 6.0341 40.1854 6.59092C40.3976 7.14395 40.5036 7.80304 40.5036 8.56819V9.19888H33.3502V7.81251H38.532C38.5282 7.41857 38.443 7.06819 38.2763 6.76137C38.1097 6.45077 37.8767 6.20645 37.5775 6.02842C37.282 5.85039 36.9373 5.76137 36.5434 5.76137C36.1229 5.76137 35.7536 5.86365 35.4354 6.06819C35.1173 6.26895 34.8691 6.5341 34.6911 6.86365C34.5169 7.18941 34.4279 7.54736 34.4241 7.93751V9.14774C34.4241 9.65531 34.5169 10.0909 34.7025 10.4546C34.8881 10.8144 35.1476 11.0909 35.4809 11.2841C35.8142 11.4735 36.2044 11.5682 36.6513 11.5682C36.9506 11.5682 37.2214 11.5265 37.4638 11.4432C37.7063 11.3561 37.9165 11.2292 38.0945 11.0625C38.2726 10.8958 38.407 10.6894 38.4979 10.4432L40.4184 10.6591C40.2972 11.1667 40.0661 11.6099 39.7252 11.9886C39.3881 12.3636 38.9563 12.6553 38.4297 12.8636C37.9032 13.0682 37.301 13.1705 36.6229 13.1705Z" fill="#272525"/>
<path d="M42.4037 13V4.27274H44.398V5.72728H44.4889C44.648 5.2235 44.9207 4.83524 45.3071 4.56251C45.6972 4.286 46.1423 4.14774 46.6423 4.14774C46.7559 4.14774 46.8828 4.15342 47.023 4.16478C47.1669 4.17236 47.2862 4.18562 47.3809 4.20456V6.0966C47.2938 6.0663 47.1556 6.03978 46.9662 6.01706C46.7806 5.99054 46.6006 5.97728 46.4264 5.97728C46.0514 5.97728 45.7143 6.05872 45.415 6.2216C45.1196 6.38069 44.8866 6.60228 44.7162 6.88637C44.5457 7.17047 44.4605 7.49812 44.4605 7.86933V13H42.4037Z" fill="#272525"/>
<path d="M55.8051 6.57956L53.9301 6.7841C53.8771 6.59471 53.7843 6.41668 53.6517 6.25001C53.5229 6.08334 53.3487 5.94887 53.129 5.8466C52.9093 5.74433 52.6404 5.69319 52.3222 5.69319C51.8942 5.69319 51.5343 5.786 51.2426 5.9716C50.9548 6.15721 50.8127 6.39774 50.8165 6.69319C50.8127 6.94698 50.9055 7.15342 51.0949 7.31251C51.2881 7.4716 51.6063 7.60228 52.0495 7.70456L53.5381 8.02274C54.3639 8.20077 54.9775 8.48297 55.379 8.86933C55.7843 9.25569 55.9889 9.76138 55.9926 10.3864C55.9889 10.9356 55.8279 11.4205 55.5097 11.8409C55.1953 12.2576 54.7578 12.5833 54.1972 12.8182C53.6366 13.053 52.9926 13.1705 52.2654 13.1705C51.1972 13.1705 50.3373 12.947 49.6858 12.5C49.0343 12.0493 48.6461 11.4224 48.5211 10.6193L50.5267 10.4261C50.6176 10.8201 50.8108 11.1174 51.1063 11.3182C51.4017 11.519 51.7862 11.6193 52.2597 11.6193C52.7483 11.6193 53.1404 11.519 53.4358 11.3182C53.7351 11.1174 53.8847 10.8693 53.8847 10.5739C53.8847 10.3239 53.7881 10.1174 53.5949 9.95456C53.4055 9.79168 53.1101 9.66668 52.7086 9.57956L51.2199 9.26706C50.3828 9.09281 49.7635 8.79925 49.362 8.38637C48.9605 7.96971 48.7616 7.44319 48.7654 6.80683C48.7616 6.26895 48.9074 5.80304 49.2029 5.4091C49.5021 5.01137 49.9169 4.70456 50.4472 4.48865C50.9813 4.26895 51.5968 4.1591 52.2938 4.1591C53.3165 4.1591 54.1214 4.37691 54.7086 4.81251C55.2995 5.24812 55.665 5.83713 55.8051 6.57956Z" fill="#272525"/>
<path d="M57.8487 13V4.27274H59.9055V13H57.8487ZM58.8828 3.0341C58.557 3.0341 58.2767 2.92615 58.0419 2.71024C57.807 2.49054 57.6896 2.22728 57.6896 1.92047C57.6896 1.60986 57.807 1.3466 58.0419 1.13069C58.2767 0.910996 58.557 0.801147 58.8828 0.801147C59.2123 0.801147 59.4926 0.910996 59.7237 1.13069C59.9585 1.3466 60.0759 1.60986 60.0759 1.92047C60.0759 2.22728 59.9585 2.49054 59.7237 2.71024C59.4926 2.92615 59.2123 3.0341 58.8828 3.0341Z" fill="#272525"/>
<path d="M65.4192 13.1534C64.7336 13.1534 64.1199 12.9773 63.5783 12.625C63.0366 12.2727 62.6086 11.7614 62.2942 11.0909C61.9798 10.4205 61.8226 9.60607 61.8226 8.64774C61.8226 7.67804 61.9817 6.85986 62.2999 6.19319C62.6218 5.52274 63.0555 5.01706 63.601 4.67615C64.1465 4.33145 64.7544 4.1591 65.4249 4.1591C65.9362 4.1591 66.3567 4.24622 66.6862 4.42047C67.0158 4.59092 67.2771 4.79736 67.4703 5.03978C67.6635 5.27842 67.8131 5.5038 67.9192 5.71592H68.0044V1.36365H70.0669V13H68.0442V11.625H67.9192C67.8131 11.8371 67.6597 12.0625 67.459 12.3011C67.2582 12.536 66.993 12.7368 66.6635 12.9034C66.334 13.0701 65.9192 13.1534 65.4192 13.1534ZM65.993 11.4659C66.4286 11.4659 66.7999 11.3485 67.1067 11.1136C67.4135 10.875 67.6465 10.5436 67.8055 10.1193C67.9646 9.69509 68.0442 9.20077 68.0442 8.63637C68.0442 8.07198 67.9646 7.58145 67.8055 7.16478C67.6502 6.74812 67.4192 6.42425 67.1124 6.19319C66.8093 5.96213 66.4362 5.8466 65.993 5.8466C65.5347 5.8466 65.1521 5.96592 64.8453 6.20456C64.5385 6.44319 64.3074 6.77274 64.1521 7.19319C63.9968 7.61365 63.9192 8.09471 63.9192 8.63637C63.9192 9.18183 63.9968 9.66857 64.1521 10.0966C64.3112 10.5208 64.5442 10.8561 64.851 11.1023C65.1616 11.3447 65.5423 11.4659 65.993 11.4659Z" fill="#272525"/>
<path d="M76.2823 13.1705C75.4073 13.1705 74.6516 12.9886 74.0153 12.625C73.3827 12.2576 72.8959 11.7386 72.555 11.0682C72.2141 10.394 72.0437 9.60039 72.0437 8.68751C72.0437 7.78978 72.2141 7.00191 72.555 6.32387C72.8997 5.64206 73.3808 5.11175 73.9982 4.73297C74.6156 4.35039 75.341 4.1591 76.1744 4.1591C76.7122 4.1591 77.2198 4.24622 77.6971 4.42047C78.1781 4.59092 78.6024 4.85607 78.9698 5.21592C79.341 5.57577 79.6327 6.0341 79.8448 6.59092C80.0569 7.14395 80.163 7.80304 80.163 8.56819V9.19888H73.0096V7.81251H78.1914C78.1876 7.41857 78.1024 7.06819 77.9357 6.76137C77.7691 6.45077 77.5361 6.20645 77.2369 6.02842C76.9414 5.85039 76.5967 5.76137 76.2028 5.76137C75.7823 5.76137 75.413 5.86365 75.0948 6.06819C74.7766 6.26895 74.5285 6.5341 74.3505 6.86365C74.1763 7.18941 74.0872 7.54736 74.0834 7.93751V9.14774C74.0834 9.65531 74.1762 10.0909 74.3619 10.4546C74.5475 10.8144 74.8069 11.0909 75.1403 11.2841C75.4736 11.4735 75.8638 11.5682 76.3107 11.5682C76.61 11.5682 76.8808 11.5265 77.1232 11.4432C77.3656 11.3561 77.5759 11.2292 77.7539 11.0625C77.9319 10.8958 78.0664 10.6894 78.1573 10.4432L80.0778 10.6591C79.9566 11.1667 79.7255 11.6099 79.3846 11.9886C79.0475 12.3636 78.6156 12.6553 78.0891 12.8636C77.5626 13.0682 76.9603 13.1705 76.2823 13.1705Z" fill="#272525"/>
</svg>
